Coordinates
version=1
nRows=29
nColumns=24
inDegrees=yes

Units are S.I. units (second, meters, Newtons, ...)
Angles are in degrees.

endheader
time	pelvis_tilt	pelvis_list	pelvis_rotation	pelvis_tx	pelvis_ty	pelvis_tz	hip_flexion_r	hip_adduction_r	hip_rotation_r	knee_angle_r	ankle_angle_r	subtalar_angle_r	mtp_angle_r	hip_flexion_l	hip_adduction_l	hip_rotation_l	knee_angle_l	ankle_angle_l	subtalar_angle_l	mtp_angle_l	lumbar_extension	lumbar_bending	lumbar_rotation
      6.74000000	      4.56201484	     -1.07695482	     -2.72693020	      0.03759455	      0.91090001	      0.14268824	     14.12166052	      0.96225374	     -4.56787088	    -60.39567114	      8.54080964	    -12.25507317	      0.00000000	      1.81274486	      5.36669943	      3.08466892	    -11.01325182	     12.40899158	     -3.86337337	      0.00000000	    -24.70925056	      0.92968803	     -8.19532531
      6.75000000	      4.48838253	     -1.04624625	     -2.28969807	      0.04703344	      0.91141807	      0.14224098	     15.02955767	      0.96948121	     -4.58716424	    -58.99863249	      8.94510639	    -12.42794489	      0.00000000	      0.96298783	      5.41383335	      3.55042517	    -10.49457407	     12.70078664	     -3.75983130	      0.00000000	    -24.60101662	      1.01113869	     -8.91221459
      6.76000000	      4.52228849	     -1.02162580	     -1.85299881	      0.05644429	      0.91192626	      0.14177919	     15.72750205	      0.98321252	     -4.54940061	    -57.35649387	      9.36563274	    -12.56006657	      0.00000000	     -0.09544961	      5.47839260	      4.50049043	     -9.81257718	     12.56754397	     -4.43494234	      0.00000000	    -24.62028309	      1.11480116	     -9.59150728
      6.77000000	      4.44050424	     -0.91953092	     -1.41031537	      0.06573978	      0.91208387	      0.14140730	     16.49295912	      0.93700192	     -4.41811446	    -55.54310011	      9.59007775	    -12.96364711	      0.00000000	     -0.87410563	      5.57516626	      4.99853898	     -9.39633283	     12.86911850	     -4.34330779	      0.00000000	    -24.50452057	      1.11293445	    -10.32242971
      6.78000000	      4.45619901	     -0.85069077	     -1.00197146	      0.07501687	      0.91225382	      0.14110985	     17.03715504	      0.95819431	     -4.15662299	    -53.46701606	      9.63222297	    -13.69748768	      0.00000000	     -1.81057885	      5.63250950	      5.62932035	     -8.88384594	     12.99261357	     -4.54982098	      0.00000000	    -24.51535671	      1.13878184	    -10.90773185
      6.79000000	      4.42137040	     -0.69358611	     -0.64461714	      0.08423703	      0.91217052	      0.14090115	     17.57459120	      0.89510095	     -3.77086995	    -51.24888633	      9.65889756	    -14.40621584	      0.00000000	     -2.72704654	      5.78551317	      6.51259939	     -8.31243754	     12.99387963	     -5.14192637	      0.00000000	    -24.47466933	      1.02893461	    -11.44863430
      6.80000000	      4.42183934	     -0.58480473	     -0.30255129	      0.09343227	      0.91204389	      0.14075664	     17.95629739	      0.89543354	     -3.30235778	    -48.79564835	      9.59926955	    -15.15621642	      0.00000000	     -3.59227051	      5.85361821	      6.97745627	     -7.90122856	     13.23188996	     -5.15354118	      0.00000000	    -24.48974402	      0.96993300	    -11.91523924
      6.81000000	      4.39359683	     -0.41769675	     -0.07915146	      0.10260156	      0.91171733	      0.14082264	     18.30309871	      0.87832484	     -2.61489392	    -46.20834912	      9.38001995	    -15.98734611	      0.00000000	     -4.46841122	      5.98294037	      7.53036484	     -7.41490311	     13.38483737	     -5.46914278	      0.00000000	    -24.48004287	      0.77400108	    -12.21010225
      6.82000000	      4.34136911	     -0.21349487	      0.10853903	      0.11178374	      0.91122917	      0.14092295	     18.59851055	      0.81081078	     -1.84625327	    -43.49468719	      9.03907879	    -16.65361052	      0.00000000	     -5.35877972	      6.14820950	      8.24452514	     -6.86734625	     13.39589521	     -5.95050249	      0.00000000	    -24.43579887	      0.52496010	    -12.41848832
      6.83000000	      4.36053778	     -0.00676052	      0.23265029	      0.12097072	      0.91071823	      0.14116650	     18.73560980	      0.74946584	     -0.97678022	    -40.64887342	      8.70927242	    -17.08004694	      0.00000000	     -6.26691926	      6.29776438	      8.58776402	     -6.42674208	     13.59075931	     -5.99298889	      0.00000000	    -24.48483579	      0.22929788	    -12.52294511
      6.84000000	      4.32258741	      0.25921114	      0.27490861	      0.13017478	      0.90997483	      0.14154171	     18.89135282	      0.64257273	      0.04954927	    -37.75427983	      8.22293157	    -17.35544465	      0.00000000	     -7.12818890	      6.51259816	      8.93912995	     -5.96379195	     13.72463660	     -6.15417944	      0.00000000	    -24.45591621	     -0.17536217	    -12.51516089
      6.85000000	      4.27416237	      0.56497817	      0.28950258	      0.13939505	      0.90907879	      0.14196443	     19.01614034	      0.47978548	      1.12659407	    -34.82392336	      7.73083549	    -17.30564050	      0.00000000	     -7.98146337	      6.76962033	      9.37148742	     -5.50817093	     13.79886471	     -6.39859172	      0.00000000	    -24.40964521	     -0.64204831	    -12.43990894
      6.86000000	      4.22709706	      0.91885414	      0.27474307	      0.14865648	      0.90803614	      0.14245029	     19.11685757	      0.25149246	      2.22842538	    -31.90117758	      7.30233836	    -16.87833811	      0.00000000	     -8.85445301	      7.07596259	      9.87252115	     -5.02457750	     13.83475234	     -6.83659343	      0.00000000	    -24.35475993	     -1.18656557	    -12.37841922
      6.87000000	      4.13063489	      1.34082653	      0.22648205	      0.15793743	      0.90681800	      0.14299151	     19.27215379	     -0.06261142	      3.33209864	    -29.03099486	      7.04764278	    -15.95248028	      0.00000000	     -9.59966989	      7.45492579	     10.04081172	     -4.67574181	     13.99116583	     -6.78923928	      0.00000000	    -24.24097286	     -1.82066860	    -12.24789789
      6.88000000	      4.15418297	      1.72990427	      0.21855780	      0.16731213	      0.90569656	      0.14348310	     19.24942217	     -0.37955081	      4.32326872	    -26.15048154	      6.87361212	    -14.63794888	      0.00000000	    -10.51048748	      7.78413006	     10.32086773	     -4.27278587	     14.06214703	     -6.86416099	      0.00000000	    -24.26470316	     -2.39005937	    -12.17467287
      6.89000000	      4.13996898	      2.15442407	      0.22009112	      0.17672656	      0.90445006	      0.14397174	     19.26355545	     -0.74819296	      5.26606342	    -23.34185476	      6.83676691	    -12.97464267	      0.00000000	    -11.35443562	      8.14965225	     10.61451939	     -3.92882083	     14.14192840	     -6.95516084	      0.00000000	    -24.24840588	     -2.99482404	    -12.12820047
      6.90000000	      4.14402447	      2.57203819	      0.25856404	      0.18621372	      0.90320127	      0.14439940	     19.23079648	     -1.13159758	      6.11667211	    -20.58853675	      6.86640617	    -11.05809054	      0.00000000	    -12.19723698	      8.50030179	     10.89523601	     -3.63683484	     14.21685601	     -7.00183912	      0.00000000	    -24.25731248	     -3.55794905	    -12.11907462
      6.91000000	      4.16595362	      2.96949937	      0.33842587	      0.19577882	      0.90197291	      0.14476462	     19.14870229	     -1.51404428	      6.85023858	    -17.90809970	      6.92195806	     -8.98217428	      0.00000000	    -13.03630729	      8.82042160	     11.18429255	     -3.40360826	     14.29445565	     -7.01301826	      0.00000000	    -24.29566137	     -4.06693989	    -12.15299803
      6.92000000	      4.15917359	      3.35534357	      0.46715851	      0.20542275	      0.90071207	      0.14504415	     19.08122621	     -1.90529213	      7.41798219	    -15.35144507	      7.05788561	     -6.77240122	      0.00000000	    -13.81272581	      9.12198042	     11.52134714	     -3.24897217	     14.34717037	     -7.06627245	      0.00000000	    -24.30511981	     -4.52675930	    -12.25042464
      6.93000000	      4.25698317	      3.66273705	      0.62461128	      0.21519403	      0.89962973	      0.14530242	     18.80154798	     -2.19983705	      8.12464956	    -12.81957047	      6.87589543	     -5.10507238	      0.00000000	    -14.66899409	      9.32843253	     11.74345253	     -3.17133077	     14.43507570	     -6.94837732	      0.00000000	    -24.44520935	     -4.86821401	    -12.34940402
      6.94000000	      4.34810457	      3.94480551	      0.84302298	      0.22507604	      0.89857109	      0.14543145	     18.51907501	     -2.49468611	      8.59231168	    -10.48711442	      6.72163487	     -3.51683436	      0.00000000	    -15.49192245	      9.49755106	     12.01066277	     -3.16605424	     14.53128787	     -6.80181933	      0.00000000	    -24.57533935	     -5.12491268	    -12.48077448
      6.95000000	      4.40730043	      4.22855081	      1.08402639	      0.23504658	      0.89749850	      0.14554660	     18.26171547	     -2.78323785	      9.00028147	     -8.37557570	      6.51088192	     -2.34772479	      0.00000000	    -16.23335966	      9.66482910	     12.32074821	     -3.27521749	     14.63935569	     -6.60933526	      0.00000000	    -24.67221943	     -5.37934948	    -12.61222133
      6.96000000	      4.52935645	      4.39812436	      1.36306716	      0.24519956	      0.89657508	      0.14560040	     17.92418389	     -2.95515245	      9.12980816	     -6.51684982	      6.29193091	     -1.43185230	      0.00000000	    -17.02425530	      9.69728150	     12.54370574	     -3.42781179	     14.71655688	     -6.40325172	      0.00000000	    -24.82499783	     -5.45899928	    -12.76195386
      6.97000000	      4.63105229	      4.55736522	      1.65658895	      0.25544914	      0.89567510	      0.14566460	     17.63782000	     -3.09641711	      9.07422337	     -4.98670221	      6.10475313	     -0.89543554	      0.00000000	    -17.74796459	      9.71441694	     12.77472184	     -3.68240770	     14.79538115	     -6.15432006	      0.00000000	    -24.95636717	     -5.52147557	    -12.89137042
      6.98000000	      4.71318155	      4.69089314	      1.97488617	      0.26582741	      0.89481568	      0.14573938	     17.40661197	     -3.19095037	      8.76049719	     -3.81470917	      5.96757232	     -0.72161757	      0.00000000	    -18.40908491	      9.69559049	     12.99820562	     -4.03052832	     14.85392466	     -5.88556522	      0.00000000	    -25.06113083	     -5.54887526	    -13.01148687
      6.99000000	      4.83526041	      4.75514245	      2.27225612	      0.27637464	      0.89406491	      0.14588727	     17.16666730	     -3.17703528	      8.20373809	     -3.00668583	      5.92464545	     -0.73601860	      0.00000000	    -19.08099465	      9.60231393	     13.11014562	     -4.44210687	     14.94585755	     -5.53389544	      0.00000000	    -25.19035248	     -5.49623838	    -13.07569683
      7.00000000	      4.95216600	      4.78516183	      2.59645618	      0.28707626	      0.89339703	      0.14608239	     16.99846979	     -3.10336143	      7.17666956	     -2.62921139	      6.15803587	     -0.60232638	      0.00000000	    -19.64335759	      9.45896441	     12.83975294	     -5.04406545	     15.11904139	     -4.68662703	      0.00000000	    -25.30213301	     -5.40962031	    -13.15124612
      7.01000000	      4.92072589	      4.83460962	      2.96646524	      0.29794694	      0.89255453	      0.14624283	     16.97058202	     -3.04917501	      6.21052981	     -2.53422582	      6.18095696	     -1.06263172	      0.00000000	    -20.07535965	      9.33185606	     12.99854934	     -5.62955146	     15.10542155	     -4.39874442	      0.00000000	    -25.21672828	     -5.34531673	    -13.25082924
      7.02000000	      5.00121100	      4.82435792	      3.30265570	      0.30896848	      0.89192539	      0.14651736	     16.96063315	     -2.90519584	      4.36128146	     -2.95438153	      6.77389636	     -0.44648442	      0.00000000	    -20.43387208	      9.13136941	     12.25082731	     -6.54579792	     15.52597417	     -2.90273500	      0.00000000	    -25.26108537	     -5.22183617	    -13.25866876
